<svg height='300px' width='300px'  fill="#000000" xmlns="http://www.w3.org/2000/svg" viewBox="0 0 40 68" x="0px" y="0px"><path fill="#000000" fill-rule="evenodd" d="M350,476.006436 C350,480.42563 346.423657,484 341.994677,484 L318.005323,484 C313.586846,484 310,480.418522 310,476.0078 L310,423.9922 C310,419.573659 313.576445,416 318.005323,416 L341.994677,416 C346.411991,416 350,419.58523 350,423.993564 L350,476.006436 Z M346,466 L346,434 L314,434 L314,466 L346,466 Z M346,476.006436 L346,470 L314,470 L314,476.0078 C314,478.208041 315.794645,480 318.005323,480 L341.994677,480 C344.215012,480 346,478.215997 346,476.006436 Z M346,430 L346,423.993564 C346,421.795063 344.203546,420 341.994677,420 L318.005323,420 C315.784886,420 314,421.783496 314,423.9922 L314,430 L346,430 Z M327,427 C325.895431,427 325,426.104569 325,425 C325,423.895431 325.895431,423 327,423 L333,423 C334.104569,423 335,423.895431 335,425 C335,426.104569 334.104569,427 333,427 L327,427 Z M330,478 C328.343146,478 327,476.656854 327,475 C327,473.343146 328.343146,472 330,472 C331.656854,472 333,473.343146 333,475 C333,476.656854 331.656854,478 330,478 Z M322,445.435201 L322,445.435201 L322,441 C322,439.895431 322.895431,439 324,439 C325.104569,439 326,439.895431 326,441 L326,441.879646 L328.671272,439.505181 C329.429044,438.831606 330.570956,438.831606 331.328728,439.505181 L340.328728,447.505181 C341.154293,448.239017 341.228655,449.503162 340.494819,450.328728 C340.099824,450.773097 339.551186,450.999824 339,451.000021 L339,460 C339,461.104569 338.104569,462 337,462 L323,462 C321.895431,462 321,461.104569 321,460 L321,451.000021 C320.448814,450.999824 319.900176,450.773097 319.505181,450.328728 C318.771345,449.503162 318.845707,448.239017 319.671272,447.505181 L322,445.435201 Z M325,448.120354 L325,458 L335,458 L335,448.120354 L330,443.67591 L325,448.120354 Z" transform="translate(-310 -416)"></path></svg>